<?xml version="1.0" encoding="iso-8859-1"?>
<!-- Generator: Adobe Illustrator 22.1.0, SVG Export Plug-In . SVG Version: 6.00 Build 0)  -->
<svg version="1.1" xmlns="http://www.w3.org/2000/svg" xmlns:xlink="http://www.w3.org/1999/xlink" x="0px" y="0px"
	 viewBox="0 0 64 64" style="enable-background:new 0 0 64 64;" xml:space="preserve">
<g id="_x31_5">
	<g>
		<path d="M32,64c13.69,0,25.367-8.6,29.937-20.689H2.063C6.633,55.4,18.31,64,32,64z"/>
		<path style="fill:#FFFFFF;" d="M0,32c0,3.983,0.733,7.793,2.063,11.311h59.874C63.267,39.793,64,35.983,64,32
			s-0.733-7.793-2.063-11.311H2.063C0.733,24.207,0,28.017,0,32z"/>
		<path style="fill:#D61632;" d="M32,0C18.31,0,6.633,8.6,2.063,20.689h59.874C57.367,8.6,45.69,0,32,0z"/>
	</g>
	<path style="fill:#CC9909;" d="M24.339,38.766c0,0,0.291-11.109,0.581-11.81c0.291-0.704,1.352-1.31,4.985,0.764
		c1.166-2.776,0.993-3.541,0.165-3.316c0,0-0.601-1.151,1.084-0.906c0.31-0.174,1.602-0.337,1.909,0.454s0.381,3.898,0.805,3.943
		c0.424,0.045,4.921-3.246,4.921-0.175s0.581,10.986,0.581,10.986l-4.036-4.969l0.86,6.143l1.132,0.003l1.052,1.272l-12.834,0.002
		l0.935-1.247l1.218-0.104l0.908-6.096L24.339,38.766z"/>
</g>
<g id="Layer_1">
</g>
</svg>
